<svg width="279" height="36" viewBox="0 0 279 36" fill="none" xmlns="http://www.w3.org/2000/svg">
<mask id="path-1-outside-1_62_39" maskUnits="userSpaceOnUse" x="0.0456543" y="0" width="279" height="36" fill="black">
<rect fill="white" x="0.0456543" width="279" height="36"/>
<path d="M37.2457 32H33.2457V24H10.8857V20H33.2457V8H18.8857C17.0723 8 15.4057 8.45333 13.8857 9.36C12.3657 10.24 11.1523 11.44 10.2457 12.96C9.36565 14.48 8.92565 16.16 8.92565 18V32H4.92565V18C4.92565 16.08 5.28565 14.28 6.00565 12.6C6.72565 10.8933 7.72565 9.4 9.00565 8.12C10.2857 6.81333 11.7657 5.8 13.4457 5.08C15.1523 4.36 16.9657 4 18.8857 4H37.2457V32ZM76.9203 24C76.9203 25.4667 76.5603 26.8133 75.8403 28.04C75.1203 29.24 74.147 30.2 72.9203 30.92C71.7203 31.64 70.387 32 68.9203 32H49.9603V28H68.9203C70.0137 28 70.947 27.6133 71.7203 26.84C72.5203 26.04 72.9203 25.0933 72.9203 24C72.9203 22.9067 72.5203 21.9733 71.7203 21.2C70.947 20.4 70.0137 20 68.9203 20H49.9603V16H64.9203C66.0137 16 66.947 15.6133 67.7203 14.84C68.5203 14.04 68.9203 13.0933 68.9203 12C68.9203 10.9067 68.5203 9.97333 67.7203 9.2C66.947 8.4 66.0137 8 64.9203 8H47.9603V32H43.9603V4H64.9203C66.387 4 67.7203 4.36 68.9203 5.08C70.147 5.8 71.1203 6.77333 71.8403 8C72.5603 9.2 72.9203 10.5333 72.9203 12C72.9203 12.8267 72.8003 13.6267 72.5603 14.4C72.3203 15.1467 71.987 15.84 71.5603 16.48C73.1337 17.0133 74.4137 17.9733 75.4003 19.36C76.4137 20.72 76.9203 22.2667 76.9203 24ZM115.057 18C115.057 19.9467 114.75 21.7733 114.137 23.48C113.523 25.16 112.643 26.64 111.497 27.92C110.377 29.2 109.03 30.2 107.457 30.92C105.883 31.64 104.137 32 102.217 32H92.8966C90.9499 32 89.1899 31.64 87.6166 30.92C86.0433 30.2 84.6833 29.2 83.5366 27.92C82.4166 26.64 81.5499 25.16 80.9366 23.48C80.3233 21.7733 80.0166 19.9467 80.0166 18C80.0166 16.08 80.3233 14.28 80.9366 12.6C81.5499 10.8933 82.4166 9.4 83.5366 8.12C84.6833 6.81333 86.0433 5.8 87.6166 5.08C89.1899 4.36 90.9499 4 92.8966 4H102.217C104.137 4 105.883 4.36 107.457 5.08C109.03 5.8 110.377 6.81333 111.497 8.12C112.643 9.4 113.523 10.8933 114.137 12.6C114.75 14.28 115.057 16.08 115.057 18ZM111.057 18C111.057 16.16 110.697 14.48 109.977 12.96C109.283 11.44 108.27 10.24 106.937 9.36C105.63 8.45333 104.057 8 102.217 8H92.8966C91.0566 8 89.4699 8.45333 88.1366 9.36C86.8299 10.24 85.8166 11.44 85.0966 12.96C84.3766 14.48 84.0166 16.16 84.0166 18C84.0166 19.84 84.3766 21.52 85.0966 23.04C85.8166 24.5333 86.8299 25.7333 88.1366 26.64C89.4699 27.5467 91.0566 28 92.8966 28H102.217C104.057 28 105.63 27.5467 106.937 26.64C108.27 25.7333 109.283 24.5333 109.977 23.04C110.697 21.52 111.057 19.84 111.057 18ZM150.171 4L150.131 18C150.131 19.9467 149.771 21.7733 149.051 23.48C148.331 25.16 147.331 26.64 146.051 27.92C144.771 29.2 143.278 30.2 141.571 30.92C139.891 31.64 138.091 32 136.171 32H133.211C131.291 32 129.478 31.64 127.771 30.92C126.091 30.2 124.611 29.2 123.331 27.92C122.051 26.6133 121.051 25.12 120.331 23.44C119.611 21.7333 119.251 19.92 119.251 18V4H123.251V18C123.251 19.84 123.691 21.52 124.571 23.04C125.478 24.5333 126.691 25.7333 128.211 26.64C129.731 27.5467 131.398 28 133.211 28H136.171C138.011 28 139.678 27.5467 141.171 26.64C142.691 25.7333 143.891 24.5333 144.771 23.04C145.678 21.52 146.131 19.84 146.131 18V4H150.171ZM171.113 32H167.113V8H152.953V4H185.273V8H171.113V32ZM222.948 32H218.948V18C218.948 16.16 218.495 14.48 217.588 12.96C216.708 11.44 215.508 10.24 213.988 9.36C212.468 8.45333 210.788 8 208.948 8H206.788V32H202.788V4H208.948C211.482 4 213.802 4.62666 215.908 5.88C218.042 7.13333 219.722 8.77333 220.948 10.8C222.175 8.77333 223.842 7.13333 225.948 5.88C228.082 4.62666 230.415 4 232.948 4H239.108V32H235.108V8H232.948C231.108 8 229.428 8.45333 227.908 9.36C226.415 10.24 225.215 11.44 224.308 12.96C223.402 14.48 222.948 16.16 222.948 18V32ZM274.795 32H245.835V4H274.795V8H249.835V28H274.795V32ZM271.395 20H251.835V16H271.395V20Z"/>
</mask>
<path d="M37.2457 32H33.2457V24H10.8857V20H33.2457V8H18.8857C17.0723 8 15.4057 8.45333 13.8857 9.36C12.3657 10.24 11.1523 11.44 10.2457 12.96C9.36565 14.48 8.92565 16.16 8.92565 18V32H4.92565V18C4.92565 16.08 5.28565 14.28 6.00565 12.6C6.72565 10.8933 7.72565 9.4 9.00565 8.12C10.2857 6.81333 11.7657 5.8 13.4457 5.08C15.1523 4.36 16.9657 4 18.8857 4H37.2457V32ZM76.9203 24C76.9203 25.4667 76.5603 26.8133 75.8403 28.04C75.1203 29.24 74.147 30.2 72.9203 30.92C71.7203 31.64 70.387 32 68.9203 32H49.9603V28H68.9203C70.0137 28 70.947 27.6133 71.7203 26.84C72.5203 26.04 72.9203 25.0933 72.9203 24C72.9203 22.9067 72.5203 21.9733 71.7203 21.2C70.947 20.4 70.0137 20 68.9203 20H49.9603V16H64.9203C66.0137 16 66.947 15.6133 67.7203 14.84C68.5203 14.04 68.9203 13.0933 68.9203 12C68.9203 10.9067 68.5203 9.97333 67.7203 9.2C66.947 8.4 66.0137 8 64.9203 8H47.9603V32H43.9603V4H64.9203C66.387 4 67.7203 4.36 68.9203 5.08C70.147 5.8 71.1203 6.77333 71.8403 8C72.5603 9.2 72.9203 10.5333 72.9203 12C72.9203 12.8267 72.8003 13.6267 72.5603 14.4C72.3203 15.1467 71.987 15.84 71.5603 16.48C73.1337 17.0133 74.4137 17.9733 75.4003 19.36C76.4137 20.72 76.9203 22.2667 76.9203 24ZM115.057 18C115.057 19.9467 114.75 21.7733 114.137 23.48C113.523 25.16 112.643 26.64 111.497 27.92C110.377 29.2 109.03 30.2 107.457 30.92C105.883 31.64 104.137 32 102.217 32H92.8966C90.9499 32 89.1899 31.64 87.6166 30.92C86.0433 30.2 84.6833 29.2 83.5366 27.92C82.4166 26.64 81.5499 25.16 80.9366 23.48C80.3233 21.7733 80.0166 19.9467 80.0166 18C80.0166 16.08 80.3233 14.28 80.9366 12.6C81.5499 10.8933 82.4166 9.4 83.5366 8.12C84.6833 6.81333 86.0433 5.8 87.6166 5.08C89.1899 4.36 90.9499 4 92.8966 4H102.217C104.137 4 105.883 4.36 107.457 5.08C109.03 5.8 110.377 6.81333 111.497 8.12C112.643 9.4 113.523 10.8933 114.137 12.6C114.75 14.28 115.057 16.08 115.057 18ZM111.057 18C111.057 16.16 110.697 14.48 109.977 12.96C109.283 11.44 108.27 10.24 106.937 9.36C105.63 8.45333 104.057 8 102.217 8H92.8966C91.0566 8 89.4699 8.45333 88.1366 9.36C86.8299 10.24 85.8166 11.44 85.0966 12.96C84.3766 14.48 84.0166 16.16 84.0166 18C84.0166 19.84 84.3766 21.52 85.0966 23.04C85.8166 24.5333 86.8299 25.7333 88.1366 26.64C89.4699 27.5467 91.0566 28 92.8966 28H102.217C104.057 28 105.63 27.5467 106.937 26.64C108.27 25.7333 109.283 24.5333 109.977 23.04C110.697 21.52 111.057 19.84 111.057 18ZM150.171 4L150.131 18C150.131 19.9467 149.771 21.7733 149.051 23.48C148.331 25.16 147.331 26.64 146.051 27.92C144.771 29.2 143.278 30.2 141.571 30.92C139.891 31.64 138.091 32 136.171 32H133.211C131.291 32 129.478 31.64 127.771 30.92C126.091 30.2 124.611 29.2 123.331 27.92C122.051 26.6133 121.051 25.12 120.331 23.44C119.611 21.7333 119.251 19.92 119.251 18V4H123.251V18C123.251 19.84 123.691 21.52 124.571 23.04C125.478 24.5333 126.691 25.7333 128.211 26.64C129.731 27.5467 131.398 28 133.211 28H136.171C138.011 28 139.678 27.5467 141.171 26.64C142.691 25.7333 143.891 24.5333 144.771 23.04C145.678 21.52 146.131 19.84 146.131 18V4H150.171ZM171.113 32H167.113V8H152.953V4H185.273V8H171.113V32ZM222.948 32H218.948V18C218.948 16.16 218.495 14.48 217.588 12.96C216.708 11.44 215.508 10.24 213.988 9.36C212.468 8.45333 210.788 8 208.948 8H206.788V32H202.788V4H208.948C211.482 4 213.802 4.62666 215.908 5.88C218.042 7.13333 219.722 8.77333 220.948 10.8C222.175 8.77333 223.842 7.13333 225.948 5.88C228.082 4.62666 230.415 4 232.948 4H239.108V32H235.108V8H232.948C231.108 8 229.428 8.45333 227.908 9.36C226.415 10.24 225.215 11.44 224.308 12.96C223.402 14.48 222.948 16.16 222.948 18V32ZM274.795 32H245.835V4H274.795V8H249.835V28H274.795V32ZM271.395 20H251.835V16H271.395V20Z" fill="#D6B265"/>
<path d="M37.2457 32V36H41.2457V32H37.2457ZM33.2457 32H29.2457V36H33.2457V32ZM33.2457 24H37.2457V20H33.2457V24ZM10.8857 24H6.88565V28H10.8857V24ZM10.8857 20V16H6.88565V20H10.8857ZM33.2457 20V24H37.2457V20H33.2457ZM33.2457 8H37.2457V4H33.2457V8ZM13.8857 9.36L15.8898 12.8217L15.9124 12.8086L15.9348 12.7953L13.8857 9.36ZM10.2457 12.96L6.81038 10.9109L6.79702 10.9333L6.78395 10.9559L10.2457 12.96ZM8.92565 32V36H12.9257V32H8.92565ZM4.92565 32H0.925654V36H4.92565V32ZM6.00565 12.6L9.68223 14.1757L9.6867 14.1653L9.69111 14.1548L6.00565 12.6ZM9.00565 8.12L11.8341 10.9484L11.8487 10.9338L11.8631 10.9191L9.00565 8.12ZM13.4457 5.08L11.8909 1.39454L11.8804 1.39895L11.87 1.40342L13.4457 5.08ZM37.2457 4H41.2457V-1.90735e-06H37.2457V4ZM37.2457 28H33.2457V36H37.2457V28ZM37.2457 32V24H29.2457V32H37.2457ZM33.2457 20H10.8857V28H33.2457V20ZM14.8857 24V20H6.88565V24H14.8857ZM10.8857 24H33.2457V16H10.8857V24ZM37.2457 20V8H29.2457V20H37.2457ZM33.2457 4H18.8857V12H33.2457V4ZM18.8857 4C16.3695 4 13.9919 4.63905 11.8365 5.92472L15.9348 12.7953C16.8194 12.2676 17.7752 12 18.8857 12V4ZM11.8815 5.89829C9.76723 7.12235 8.0632 8.81056 6.81038 10.9109L13.6809 15.0091C14.2414 14.0694 14.9641 13.3576 15.8898 12.8217L11.8815 5.89829ZM6.78395 10.9559C5.53425 13.1144 4.92565 15.4911 4.92565 18H12.9257C12.9257 16.8289 13.1971 15.8456 13.7074 14.9641L6.78395 10.9559ZM4.92565 18V32H12.9257V18H4.92565ZM8.92565 28H4.92565V36H8.92565V28ZM8.92565 32V18H0.925654V32H8.92565ZM8.92565 18C8.92565 16.5939 9.18632 15.3328 9.68223 14.1757L2.32907 11.0243C1.38499 13.2272 0.925654 15.5661 0.925654 18H8.92565ZM9.69111 14.1548C10.2151 12.9127 10.9279 11.8546 11.8341 10.9484L6.17723 5.29157C4.52341 6.94539 3.23619 8.87396 2.3202 11.0452L9.69111 14.1548ZM11.8631 10.9191C12.7776 9.9856 13.8222 9.2705 15.0213 8.75658L11.87 1.40342C9.70912 2.3295 7.79375 3.64107 6.14822 5.32088L11.8631 10.9191ZM15.0005 8.76545C16.197 8.26065 17.4798 8 18.8857 8V-1.90735e-06C16.4515 -1.90735e-06 14.1076 0.459342 11.8909 1.39454L15.0005 8.76545ZM18.8857 8H37.2457V-1.90735e-06H18.8857V8ZM33.2457 4V32H41.2457V4H33.2457ZM75.8403 28.04L79.2703 30.098L79.2802 30.0814L79.29 30.0648L75.8403 28.04ZM72.9203 30.92L70.8955 27.4703L70.8789 27.4801L70.8624 27.49L72.9203 30.92ZM49.9603 32H45.9603V36H49.9603V32ZM49.9603 28V24H45.9603V28H49.9603ZM71.7203 26.84L74.5488 29.6684L74.5488 29.6684L71.7203 26.84ZM71.7203 21.2L68.8444 23.9801L68.8915 24.0288L68.9403 24.076L71.7203 21.2ZM49.9603 20H45.9603V24H49.9603V20ZM49.9603 16V12H45.9603V16H49.9603ZM67.7203 14.84L64.8919 12.0116L67.7203 14.84ZM67.7203 9.2L64.8444 11.9801L64.8915 12.0288L64.9403 12.0759L67.7203 9.2ZM47.9603 8V4H43.9603V8H47.9603ZM47.9603 32V36H51.9603V32H47.9603ZM43.9603 32H39.9603V36H43.9603V32ZM43.9603 4V-1.90735e-06H39.9603V4H43.9603ZM68.9203 5.08L66.8624 8.50997L66.8789 8.5199L66.8955 8.52966L68.9203 5.08ZM71.8403 8L68.3907 10.0248L68.4004 10.0414L68.4104 10.058L71.8403 8ZM72.5603 14.4L76.3685 15.624L76.3746 15.6048L76.3806 15.5856L72.5603 14.4ZM71.5603 16.48L68.2321 14.2612L65.3424 18.5958L70.2762 20.2683L71.5603 16.48ZM75.4003 19.36L72.1412 21.679L72.1666 21.7148L72.1928 21.7499L75.4003 19.36ZM72.9203 24C72.9203 24.778 72.7388 25.4222 72.3907 26.0152L79.29 30.0648C80.3819 28.2045 80.9203 26.1553 80.9203 24H72.9203ZM72.4104 25.982C72.0407 26.5981 71.5546 27.0835 70.8955 27.4703L74.9451 34.3697C76.7394 33.3165 78.1999 31.8819 79.2703 30.098L72.4104 25.982ZM70.8624 27.49C70.3145 27.8187 69.6984 28 68.9203 28V36C71.0756 36 73.1262 35.4613 74.9783 34.35L70.8624 27.49ZM68.9203 28H49.9603V36H68.9203V28ZM53.9603 32V28H45.9603V32H53.9603ZM49.9603 32H68.9203V24H49.9603V32ZM68.9203 32C71.0749 32 73.0255 31.1917 74.5488 29.6684L68.8919 24.0116C68.8658 24.0377 68.8552 24.0438 68.8618 24.0393C68.8648 24.0373 68.8707 24.0335 68.8794 24.0288C68.8881 24.0241 68.8982 24.0192 68.9094 24.0146C68.9205 24.01 68.9312 24.0062 68.9407 24.0034C68.9502 24.0006 68.9571 23.9991 68.9607 23.9984C68.9687 23.9968 68.957 24 68.9203 24V32ZM74.5488 29.6684C76.0698 28.1474 76.9203 26.1947 76.9203 24H68.9203C68.9203 24.0146 68.9197 24.0231 68.9194 24.0263C68.9191 24.0293 68.9191 24.028 68.9201 24.0228C68.9211 24.0177 68.9229 24.0102 68.9257 24.0009C68.9285 23.9916 68.9319 23.9822 68.9358 23.9731C68.9396 23.9641 68.9432 23.9569 68.9459 23.9519C68.9486 23.947 68.9498 23.9455 68.9484 23.9475C68.946 23.951 68.9305 23.973 68.8919 24.0116L74.5488 29.6684ZM76.9203 24C76.9203 21.8008 76.0645 19.836 74.5004 18.324L68.9403 24.076C68.9704 24.1051 68.978 24.1175 68.9732 24.1107C68.968 24.1032 68.956 24.0843 68.9438 24.0557C68.9315 24.027 68.9244 24.0014 68.921 23.9845C68.9179 23.9684 68.9203 23.9716 68.9203 24H76.9203ZM74.5963 18.4199C73.0843 16.8558 71.1195 16 68.9203 16V24C68.9488 24 68.952 24.0025 68.9358 23.9993C68.9189 23.996 68.8934 23.9889 68.8647 23.9766C68.8361 23.9643 68.8171 23.9524 68.8096 23.9471C68.8029 23.9424 68.8152 23.9499 68.8444 23.9801L74.5963 18.4199ZM68.9203 16H49.9603V24H68.9203V16ZM53.9603 20V16H45.9603V20H53.9603ZM49.9603 20H64.9203V12H49.9603V20ZM64.9203 20C67.0749 20 69.0255 19.1917 70.5488 17.6684L64.8919 12.0116C64.8658 12.0377 64.8552 12.0438 64.8618 12.0393C64.8648 12.0373 64.8707 12.0335 64.8794 12.0288C64.8881 12.0241 64.8982 12.0192 64.9094 12.0146C64.9205 12.01 64.9312 12.0062 64.9407 12.0034C64.9502 12.0006 64.9571 11.9991 64.9607 11.9984C64.9687 11.9968 64.9571 12 64.9203 12V20ZM70.5488 17.6684C72.0698 16.1474 72.9203 14.1947 72.9203 12H64.9203C64.9203 12.0146 64.9197 12.0231 64.9194 12.0263C64.9191 12.0293 64.9191 12.028 64.9201 12.0228C64.9211 12.0177 64.9229 12.0102 64.9257 12.0009C64.9285 11.9916 64.9319 11.9822 64.9358 11.9731C64.9396 11.9641 64.9432 11.9569 64.9459 11.9519C64.9486 11.947 64.9498 11.9455 64.9484 11.9475C64.946 11.951 64.9304 11.973 64.8919 12.0116L70.5488 17.6684ZM72.9203 12C72.9203 9.80084 72.0645 7.83601 70.5004 6.32405L64.9403 12.0759C64.9704 12.1051 64.978 12.1175 64.9732 12.1107C64.968 12.1032 64.956 12.0843 64.9438 12.0557C64.9315 12.027 64.9244 12.0014 64.921 11.9845C64.9179 11.9684 64.9203 11.9716 64.9203 12H72.9203ZM70.5963 6.41991C69.0843 4.85581 67.1195 4 64.9203 4V12C64.9488 12 64.952 12.0025 64.9358 11.9993C64.9189 11.996 64.8934 11.9889 64.8647 11.9766C64.8361 11.9643 64.8171 11.9524 64.8096 11.9471C64.8029 11.9424 64.8152 11.9499 64.8444 11.9801L70.5963 6.41991ZM64.9203 4H47.9603V12H64.9203V4ZM43.9603 8V32H51.9603V8H43.9603ZM47.9603 28H43.9603V36H47.9603V28ZM47.9603 32V4H39.9603V32H47.9603ZM43.9603 8H64.9203V-1.90735e-06H43.9603V8ZM64.9203 8C65.6984 8 66.3145 8.18125 66.8624 8.50997L70.9783 1.65003C69.1262 0.538745 67.0756 -1.90735e-06 64.9203 -1.90735e-06V8ZM66.8955 8.52966C67.5334 8.90408 68.0163 9.3869 68.3907 10.0248L75.29 5.9752C74.2244 4.15977 72.7606 2.69591 70.9451 1.63034L66.8955 8.52966ZM68.4104 10.058C68.7391 10.6058 68.9203 11.2219 68.9203 12H76.9203C76.9203 9.84474 76.3816 7.79415 75.2703 5.94202L68.4104 10.058ZM68.9203 12C68.9203 12.4332 68.8584 12.833 68.7401 13.2144L76.3806 15.5856C76.7422 14.4203 76.9203 13.2201 76.9203 12H68.9203ZM68.7522 13.176C68.6232 13.5774 68.4496 13.935 68.2321 14.2612L74.8885 18.6988C75.5244 17.745 76.0175 16.7159 76.3685 15.624L68.7522 13.176ZM70.2762 20.2683C71.0325 20.5246 71.6293 20.9596 72.1412 21.679L78.6595 17.041C77.1981 14.9871 75.2348 13.502 72.8445 12.6917L70.2762 20.2683ZM72.1928 21.7499C72.6796 22.4032 72.9203 23.1075 72.9203 24H80.9203C80.9203 21.4259 80.1478 19.0368 78.6079 16.9701L72.1928 21.7499ZM114.137 23.48L117.894 24.8518L117.897 24.8423L117.901 24.8328L114.137 23.48ZM111.497 27.92L108.517 25.251L108.502 25.2684L108.486 25.286L111.497 27.92ZM83.5366 27.92L80.5263 30.554L80.5417 30.5716L80.5573 30.589L83.5366 27.92ZM80.9366 23.48L77.1723 24.8328L77.1757 24.8423L77.1792 24.8518L80.9366 23.48ZM80.9366 12.6L84.694 13.9718L84.6975 13.9623L84.7009 13.9528L80.9366 12.6ZM83.5366 8.12L80.5301 5.48164L80.5263 5.48598L83.5366 8.12ZM111.497 8.12L108.46 10.7232L108.488 10.7564L108.517 10.789L111.497 8.12ZM114.137 12.6L110.372 13.9528L110.376 13.9623L110.379 13.9718L114.137 12.6ZM109.977 12.96L106.337 14.62L106.349 14.6463L106.362 14.6723L109.977 12.96ZM106.937 9.36L104.656 12.6464L104.694 12.6728L104.733 12.6984L106.937 9.36ZM88.1366 9.36L90.371 12.6777L90.3784 12.6727L90.3858 12.6677L88.1366 9.36ZM85.0966 12.96L88.7115 14.6723L88.7115 14.6723L85.0966 12.96ZM85.0966 23.04L81.4816 24.7523L81.4875 24.7648L81.4935 24.7772L85.0966 23.04ZM88.1366 26.64L85.8563 29.9264L85.8718 29.9371L85.8874 29.9477L88.1366 26.64ZM106.937 26.64L104.687 23.3323L104.672 23.3429L104.656 23.3536L106.937 26.64ZM109.977 23.04L106.362 21.3277L106.355 21.3416L106.349 21.3556L109.977 23.04ZM111.057 18C111.057 19.5195 110.819 20.8854 110.372 22.1272L117.901 24.8328C118.681 22.6613 119.057 20.3738 119.057 18H111.057ZM110.379 22.1082C109.933 23.3301 109.311 24.3654 108.517 25.251L114.476 30.589C115.976 28.9146 117.113 26.9899 117.894 24.8518L110.379 22.1082ZM108.486 25.286C107.745 26.1326 106.86 26.794 105.792 27.2828L109.121 34.5572C111.2 33.606 113.008 32.2674 114.507 30.554L108.486 25.286ZM105.792 27.2828C104.796 27.7387 103.626 28 102.217 28V36C104.648 36 106.971 35.5413 109.121 34.5572L105.792 27.2828ZM102.217 28H92.8966V36H102.217V28ZM92.8966 28C91.4523 28 90.2703 27.7355 89.2811 27.2828L85.9521 34.5572C88.1096 35.5445 90.4476 36 92.8966 36V28ZM89.2811 27.2828C88.2044 26.7901 87.293 26.1184 86.5159 25.251L80.5573 30.589C82.0735 32.2816 83.8821 33.6099 85.9521 34.5572L89.2811 27.2828ZM86.5469 25.286C85.7681 24.396 85.1471 23.3492 84.694 22.1082L77.1792 24.8518C77.9528 26.9708 79.065 28.884 80.5263 30.554L86.5469 25.286ZM84.7009 22.1272C84.2546 20.8854 84.0166 19.5195 84.0166 18H76.0166C76.0166 20.3738 76.3919 22.6613 77.1723 24.8328L84.7009 22.1272ZM84.0166 18C84.0166 16.5133 84.2526 15.1809 84.694 13.9718L77.1792 11.2282C76.3939 13.3791 76.0166 15.6467 76.0166 18H84.0166ZM84.7009 13.9528C85.1565 12.6851 85.7774 11.6334 86.5469 10.754L80.5263 5.48598C79.0558 7.16657 77.9434 9.10158 77.1723 11.2472L84.7009 13.9528ZM86.5431 10.7584C87.3197 9.87344 88.223 9.20144 89.2811 8.71723L85.9521 1.44277C83.8635 2.39856 82.0469 3.75322 80.5301 5.48164L86.5431 10.7584ZM89.2811 8.71723C90.2703 8.26455 91.4523 8 92.8966 8V-1.90735e-06C90.4476 -1.90735e-06 88.1096 0.45545 85.9521 1.44277L89.2811 8.71723ZM92.8966 8H102.217V-1.90735e-06H92.8966V8ZM102.217 8C103.626 8 104.796 8.26133 105.792 8.71723L109.121 1.44277C106.971 0.458664 104.648 -1.90735e-06 102.217 -1.90735e-06V8ZM105.792 8.71723C106.841 9.19739 107.719 9.859 108.46 10.7232L114.534 5.51684C113.034 3.76767 111.219 2.4026 109.121 1.44277L105.792 8.71723ZM108.517 10.789C109.301 11.664 109.924 12.7041 110.372 13.9528L117.901 11.2472C117.123 9.08253 115.985 7.13601 114.476 5.45101L108.517 10.789ZM110.379 13.9718C110.821 15.1809 111.057 16.5133 111.057 18H119.057C119.057 15.6467 118.679 13.3791 117.894 11.2282L110.379 13.9718ZM115.057 18C115.057 15.6242 114.588 13.3516 113.592 11.2477L106.362 14.6723C106.805 15.6084 107.057 16.6958 107.057 18H115.057ZM113.616 11.3C112.626 9.12963 111.129 7.33459 109.14 6.02156L104.733 12.6984C105.41 13.1454 105.941 13.7504 106.337 14.62L113.616 11.3ZM109.217 6.07365C107.14 4.63244 104.74 4 102.217 4V12C103.373 12 104.12 12.2742 104.656 12.6464L109.217 6.07365ZM102.217 4H92.8966V12H102.217V4ZM92.8966 4C90.3713 4 87.9746 4.63298 85.8874 6.05229L90.3858 12.6677C90.9653 12.2737 91.7419 12 92.8966 12V4ZM85.9022 6.04225C83.959 7.35094 82.4877 9.12383 81.4816 11.2477L88.7115 14.6723C89.1455 13.7562 89.7009 13.1291 90.371 12.6777L85.9022 6.04225ZM81.4816 11.2477C80.485 13.3516 80.0166 15.6242 80.0166 18H88.0166C88.0166 16.6958 88.2682 15.6084 88.7115 14.6723L81.4816 11.2477ZM80.0166 18C80.0166 20.3758 80.485 22.6484 81.4816 24.7523L88.7115 21.3277C88.2682 20.3916 88.0166 19.3042 88.0166 18H80.0166ZM81.4935 24.7772C82.5001 26.865 83.9579 28.6091 85.8563 29.9264L90.4169 23.3536C89.702 22.8576 89.1331 22.2017 88.6997 21.3028L81.4935 24.7772ZM85.8874 29.9477C87.9746 31.367 90.3713 32 92.8966 32V24C91.7419 24 90.9653 23.7263 90.3858 23.3323L85.8874 29.9477ZM92.8966 32H102.217V24H92.8966V32ZM102.217 32C104.74 32 107.14 31.3676 109.217 29.9264L104.656 23.3536C104.12 23.7258 103.373 24 102.217 24V32ZM109.186 29.9477C111.13 28.6256 112.614 26.859 113.605 24.7244L106.349 21.3556C105.953 22.2077 105.41 22.8411 104.687 23.3323L109.186 29.9477ZM113.592 24.7523C114.588 22.6484 115.057 20.3758 115.057 18H107.057C107.057 19.3042 106.805 20.3916 106.362 21.3277L113.592 24.7523ZM150.171 4L154.171 4.01143L154.183 -1.90735e-06H150.171V4ZM150.131 18L146.131 17.9886V18H150.131ZM149.051 23.48L152.728 25.0557L152.732 25.0453L152.737 25.0348L149.051 23.48ZM146.051 27.92L143.223 25.0916L143.223 25.0916L146.051 27.92ZM141.571 30.92L140.016 27.2345L140.006 27.239L139.996 27.2434L141.571 30.92ZM127.771 30.92L126.196 34.5966L126.206 34.601L126.216 34.6055L127.771 30.92ZM123.331 27.92L120.474 30.7191L120.488 30.7338L120.503 30.7484L123.331 27.92ZM120.331 23.44L116.646 24.9948L116.65 25.0053L116.655 25.0157L120.331 23.44ZM119.251 4V-1.90735e-06H115.251V4H119.251ZM123.251 4H127.251V-1.90735e-06H123.251V4ZM124.571 23.04L121.11 25.0441L121.13 25.0803L121.152 25.1159L124.571 23.04ZM128.211 26.64L130.26 23.2047L130.26 23.2047L128.211 26.64ZM141.171 26.64L139.122 23.2047L139.109 23.2127L139.095 23.2208L141.171 26.64ZM144.771 23.04L141.336 20.9909L141.331 21L141.325 21.0092L144.771 23.04ZM146.131 4V-1.90735e-06H142.131V4H146.131ZM146.171 3.98857L146.131 17.9886L154.131 18.0114L154.171 4.01143L146.171 3.98857ZM146.131 18C146.131 19.4403 145.868 20.7355 145.366 21.9252L152.737 25.0348C153.675 22.8112 154.131 20.4531 154.131 18H146.131ZM145.375 21.9043C144.853 23.1212 144.139 24.175 143.223 25.0916L148.88 30.7484C150.523 29.105 151.809 27.1987 152.728 25.0557L145.375 21.9043ZM143.223 25.0916C142.317 25.9978 141.259 26.7105 140.016 27.2345L143.126 34.6055C145.297 33.6895 147.226 32.4022 148.88 30.7484L143.223 25.0916ZM139.996 27.2434C138.838 27.7393 137.577 28 136.171 28V36C138.605 36 140.944 35.5407 143.147 34.5966L139.996 27.2434ZM136.171 28H133.211V36H136.171V28ZM133.211 28C131.805 28 130.523 27.7393 129.326 27.2345L126.216 34.6055C128.433 35.5407 130.777 36 133.211 36V28ZM129.347 27.2434C128.13 26.7219 127.076 26.0082 126.16 25.0916L120.503 30.7484C122.146 32.3918 124.053 33.6781 126.196 34.5966L129.347 27.2434ZM126.189 25.1209C125.255 24.1676 124.533 23.089 124.008 21.8643L116.655 25.0157C117.57 27.151 118.848 29.0591 120.474 30.7191L126.189 25.1209ZM124.017 21.8852C123.512 20.6886 123.251 19.4059 123.251 18H115.251C115.251 20.4341 115.711 22.778 116.646 24.9948L124.017 21.8852ZM123.251 18V4H115.251V18H123.251ZM119.251 8H123.251V-1.90735e-06H119.251V8ZM119.251 4V18H127.251V4H119.251ZM119.251 18C119.251 20.5089 119.86 22.8856 121.11 25.0441L128.033 21.0359C127.523 20.1544 127.251 19.1711 127.251 18H119.251ZM121.152 25.1159C122.402 27.175 124.089 28.8387 126.162 30.0753L130.26 23.2047C129.294 22.628 128.554 21.8917 127.99 20.9641L121.152 25.1159ZM126.162 30.0753C128.318 31.361 130.695 32 133.211 32V24C132.101 24 131.145 23.7324 130.26 23.2047L126.162 30.0753ZM133.211 32H136.171V24H133.211V32ZM136.171 32C138.703 32 141.094 31.3663 143.247 30.0591L139.095 23.2208C138.262 23.727 137.32 24 136.171 24V32ZM143.22 30.0753C145.304 28.8325 146.989 27.1546 148.217 25.0708L141.325 21.0092C140.793 21.9121 140.079 22.6341 139.122 23.2047L143.22 30.0753ZM148.207 25.0891C149.498 22.9243 150.131 20.5316 150.131 18H142.131C142.131 19.1484 141.858 20.1157 141.336 20.9909L148.207 25.0891ZM150.131 18V4H142.131V18H150.131ZM146.131 8H150.171V-1.90735e-06H146.131V8ZM171.113 32V36H175.113V32H171.113ZM167.113 32H163.113V36H167.113V32ZM167.113 8H171.113V4H167.113V8ZM152.953 8H148.953V12H152.953V8ZM152.953 4V-1.90735e-06H148.953V4H152.953ZM185.273 4H189.273V-1.90735e-06H185.273V4ZM185.273 8V12H189.273V8H185.273ZM171.113 8V4H167.113V8H171.113ZM171.113 28H167.113V36H171.113V28ZM171.113 32V8H163.113V32H171.113ZM167.113 4H152.953V12H167.113V4ZM156.953 8V4H148.953V8H156.953ZM152.953 8H185.273V-1.90735e-06H152.953V8ZM181.273 4V8H189.273V4H181.273ZM185.273 4H171.113V12H185.273V4ZM167.113 8V32H175.113V8H167.113ZM222.948 32V36H226.948V32H222.948ZM218.948 32H214.948V36H218.948V32ZM217.588 12.96L214.127 14.9641L214.14 14.9867L214.153 15.0091L217.588 12.96ZM213.988 9.36L211.939 12.7953L211.962 12.8086L211.984 12.8217L213.988 9.36ZM206.788 8V4H202.788V8H206.788ZM206.788 32V36H210.788V32H206.788ZM202.788 32H198.788V36H202.788V32ZM202.788 4V-1.90735e-06H198.788V4H202.788ZM215.908 5.88L213.863 9.31763L213.873 9.32326L213.882 9.32884L215.908 5.88ZM220.948 10.8L217.526 12.8712L220.948 18.5249L224.37 12.8712L220.948 10.8ZM225.948 5.88L223.922 2.43115L223.913 2.43674L223.903 2.44237L225.948 5.88ZM239.108 4H243.108V-1.90735e-06H239.108V4ZM239.108 32V36H243.108V32H239.108ZM235.108 32H231.108V36H235.108V32ZM235.108 8H239.108V4H235.108V8ZM227.908 9.36L229.939 12.8062L229.948 12.8007L229.958 12.7953L227.908 9.36ZM224.308 12.96L227.744 15.0091L227.744 15.0091L224.308 12.96ZM222.948 28H218.948V36H222.948V28ZM222.948 32V18H214.948V32H222.948ZM222.948 18C222.948 15.4684 222.315 13.0757 221.024 10.9109L214.153 15.0091C214.675 15.8843 214.948 16.8516 214.948 18H222.948ZM221.05 10.9559C219.82 8.83101 218.117 7.12847 215.993 5.89829L211.984 12.8217C212.899 13.3515 213.597 14.049 214.127 14.9641L221.05 10.9559ZM216.038 5.92472C213.873 4.63344 211.48 4 208.948 4V12C210.097 12 211.064 12.2732 211.939 12.7953L216.038 5.92472ZM208.948 4H206.788V12H208.948V4ZM202.788 8V32H210.788V8H202.788ZM206.788 28H202.788V36H206.788V28ZM206.788 32V4H198.788V32H206.788ZM202.788 8H208.948V-1.90735e-06H202.788V8ZM208.948 8C210.787 8 212.397 8.44507 213.863 9.31763L217.954 2.44237C215.207 0.808261 212.176 -1.90735e-06 208.948 -1.90735e-06V8ZM213.882 9.32884C215.47 10.2614 216.659 11.4381 217.526 12.8712L224.37 8.72879C222.785 6.10861 220.614 4.00528 217.935 2.43115L213.882 9.32884ZM224.37 12.8712C225.245 11.426 226.431 10.2475 227.994 9.31762L223.903 2.44237C221.253 4.01921 219.105 6.12068 217.526 8.72879L224.37 12.8712ZM227.975 9.32884C229.479 8.44532 231.11 8 232.948 8V-1.90735e-06C229.721 -1.90735e-06 226.685 0.808008 223.922 2.43115L227.975 9.32884ZM232.948 8H239.108V-1.90735e-06H232.948V8ZM235.108 4V32H243.108V4H235.108ZM239.108 28H235.108V36H239.108V28ZM239.108 32V8H231.108V32H239.108ZM235.108 4H232.948V12H235.108V4ZM232.948 4C230.417 4 228.024 4.63344 225.859 5.92472L229.958 12.7953C230.833 12.2732 231.8 12 232.948 12V4ZM225.878 5.91384C223.794 7.14181 222.116 8.82748 220.873 10.9109L227.744 15.0091C228.314 14.0525 229.036 13.3382 229.939 12.8062L225.878 5.91384ZM220.873 10.9109C219.582 13.0757 218.948 15.4684 218.948 18H226.948C226.948 16.8516 227.222 15.8843 227.744 15.0091L220.873 10.9109ZM218.948 18V32H226.948V18H218.948ZM274.795 32V36H278.795V32H274.795ZM245.835 32H241.835V36H245.835V32ZM245.835 4V-1.90735e-06H241.835V4H245.835ZM274.795 4H278.795V-1.90735e-06H274.795V4ZM274.795 8V12H278.795V8H274.795ZM249.835 8V4H245.835V8H249.835ZM249.835 28H245.835V32H249.835V28ZM274.795 28H278.795V24H274.795V28ZM271.395 20V24H275.395V20H271.395ZM251.835 20H247.835V24H251.835V20ZM251.835 16V12H247.835V16H251.835ZM271.395 16H275.395V12H271.395V16ZM274.795 28H245.835V36H274.795V28ZM249.835 32V4H241.835V32H249.835ZM245.835 8H274.795V-1.90735e-06H245.835V8ZM270.795 4V8H278.795V4H270.795ZM274.795 4H249.835V12H274.795V4ZM245.835 8V28H253.835V8H245.835ZM249.835 32H274.795V24H249.835V32ZM270.795 28V32H278.795V28H270.795ZM271.395 16H251.835V24H271.395V16ZM255.835 20V16H247.835V20H255.835ZM251.835 20H271.395V12H251.835V20ZM267.395 16V20H275.395V16H267.395Z" fill="url(#paint0_linear_62_39)" mask="url(#path-1-outside-1_62_39)"/>
<defs>
<linearGradient id="paint0_linear_62_39" x1="2.04565" y1="18" x2="277.046" y2="18" gradientUnits="userSpaceOnUse">
<stop stop-color="#8C050E" stop-opacity="0.6"/>
<stop offset="1" stop-color="#021130"/>
</linearGradient>
</defs>
</svg>
